<svg width="25" height="29" viewBox="0 0 25 29" fill="none" xmlns="http://www.w3.org/2000/svg">
<g clip-path="url(#clip0_6_21)">
<path d="M2.67857 1.35938C2.67857 0.606055 2.08147 0 1.33929 0C0.597098 0 0 0.606055 0 1.35938V3.625V19.8525V22.6562V27.6406C0 28.3939 0.597098 29 1.33929 29C2.08147 29 2.67857 28.3939 2.67857 27.6406V21.9766L7.1596 20.8381C9.45312 20.2547 11.8806 20.5266 13.9955 21.5971C16.4621 22.8488 19.3248 23.0018 21.9029 22.0162L23.8393 21.2799C24.5368 21.0137 25 20.3396 25 19.5807V3.73828C25 2.43555 23.6496 1.58594 22.5 2.16934L21.9643 2.44121C19.3806 3.75527 16.3393 3.75527 13.7556 2.44121C11.7969 1.44434 9.54799 1.19512 7.42188 1.7332L2.67857 2.94531V1.35938ZM2.67857 5.74902L8.0692 4.37832C9.57589 3.99883 11.1663 4.17441 12.5558 4.87676C15.6194 6.42871 19.1797 6.55898 22.3214 5.26191V18.9576L20.9598 19.473C19.0792 20.1867 16.9866 20.0791 15.1897 19.1672C12.5 17.8021 9.42522 17.4623 6.5067 18.1986L2.67857 19.1729V5.74902Z" fill="black"/>
</g>
<defs>
<clipPath id="clip0_6_21">
<rect width="25" height="29" fill="white"/>
</clipPath>
</defs>
</svg>
